<?xml version="1.0" encoding="UTF-8" standalone="no"?>


<svg
   version="1.1"
   id="svg2"
   width="128"
   height="128"
   viewBox="0 0 128 128"
   sodipodi:docname="Gear-Wrench.png.svg"
   inkscape:version="1.1.2 (0a00cf5339, 2022-02-04)"
   xmlns:inkscape="http://www.inkscape.org/namespaces/inkscape"
   xmlns:sodipodi="http://sodipodi.sourceforge.net/DTD/sodipodi-0.dtd"
   xmlns="http://www.w3.org/2000/svg"
   xmlns:svg="http://www.w3.org/2000/svg">
  <defs
     id="defs6" />

  <g label="Image"
     id="g8">
    <g
       id="g37595"
       transform="matrix(0.14783185,0,0,0.15099647,1.3996429,8.2765581)">
      <path
         style="fill:#1a1a1a"
         d="m 406.49024,748.02275 c -15.22017,-1.7701 -24.97369,-7.5538 -27.73529,-16.4466 -0.79687,-2.5661 -1.46167,-14.4135 -1.85446,-33.0485 -0.77371,-36.7062 0.16583,-34.8767 -21.6123,-42.0853 -16.16606,-5.351 -29.17008,-10.6385 -45.75,-18.6023 -11.09397,-5.3287 -14.75,-7.5412 -14.75,-8.926 0,-1.0127 3.7315,-6.0029 8.29223,-11.0896 4.56073,-5.0865 19.65684,-22.1858 33.54691,-37.9983 13.89007,-15.8125 25.37795,-28.75 25.52862,-28.75 0.15066,0 4.97668,1.7721 10.72448,3.9381 58.49356,22.0425 119.00709,19.3068 174.40776,-7.8846 108.08245,-53.0482 152.80695,-183.4268 100.01335,-291.5535 -30.9097,-63.306 -88.78588,-106.90884 -159.01335,-119.79764 -10.32784,-1.8955 -15.48367,-2.2 -37,-2.1851 -21.32696,0.015 -26.76306,0.3383 -37,2.2023 -37.31351,6.7944 -69.71679,21.43334 -98.9687,44.71124 -71.85478,57.1804 -100.38176,154.6642 -70.39849,240.5692 2.7835,7.975 5.12982,15.8247 5.21405,17.4438 0.13956,2.6828 -3.17244,5.8497 -37.34686,35.7114 -20.625,18.0221 -38.32003,32.7849 -39.32228,32.8061 -3.26828,0.069 -21.73651,-41.6094 -28.72578,-64.8277 -2.1963,-7.2961 -5.96023,-12.9104 -10.33908,-15.4218 -1.46734,-0.8416 -11.2785,-1.3646 -32.11286,-1.7118 l -30.000002,-0.5 -4.72342,-2.7766 c -2.93533,-1.7255 -5.69065,-4.427 -7.27847,-7.1364 -5.00489,-8.5402 -5.70634,-14.8541 -6.22353,-56.0192 -0.68606,-54.6057 0.94972,-66.7192 10.15312,-75.1871 2.81091,-2.5863 6.14818,-4.5401 8.9675,-5.25 2.77255,-0.6981 14.52954,-1.1307 30.731902,-1.1307 24.14404,0 26.56641,-0.1587 30.30718,-1.9852 5.09008,-2.4853 8.13895,-6.9335 10.74897,-15.6825 4.33498,-14.5312 14.84432,-40.2806 23.80767,-58.3323 9.24411,-18.6171 9.6434,-17.4856 -14.99796,-42.5 -11.15881,-11.32774 -20.63211,-21.82564 -21.84735,-24.21024 -2.96406,-5.8161 -2.8801,-14.1751 0.20883,-20.7898 3.89637,-8.3438 13.86397,-19.889399 38.06007,-44.085499 24.19611,-24.1961 35.74171,-34.1637 44.08549,-38.0601 6.50027,-3.0355 14.06156,-3.1219 19.78984,-0.2261 2.42683,1.2269 12.69741,10.5094 24.24726,21.9148 16.78698,16.5769 20.63934,19.8994 23.75,20.4829 5.52528,1.0366 9.75058,-0.108 19.97728,-5.4118 13.82653,-7.1706 33.37297,-15.3609 50.63874,-21.2185 16.04719,-5.4442 20.83348,-8.2916 22.92995,-13.6411 0.6456,-1.6474 1.22923,-14.0094 1.45196,-30.75461 0.38506,-28.9493 0.7496,-31.73852 4.93327,-37.74614 2.78305,-3.99638 9.52379,-7.57567 17.92251,-9.51674 6.33373,-1.46382 13.49034,-1.70082 51.35919,-1.70082 38.09569,0 45.00238,0.23133 51.46994,1.72391 10.8522,2.50447 15.85976,5.89919 19.53006,13.23979 l 3,6 0.29942,28 c 0.17991,16.82441 0.72801,29.09941 1.37323,30.75461 1.96362,5.0372 7.05733,8.3256 18.98167,12.2542 16.01633,5.2768 34.01133,12.6205 50.58493,20.6438 24.1564,11.6939 22.0085,12.2839 47.7237,-13.1095 11.5498,-11.4054 21.8204,-20.6879 24.2472,-21.9148 5.7283,-2.8958 13.2896,-2.8094 19.7899,0.2261 8.2712,3.8625 19.7935,13.8172 44.0811,38.0842 33.0914,33.063099 40.4129,42.954099 40.3871,54.561399 -0.021,9.3258 -2.1929,12.4563 -23.8635,34.39124 -25.5826,25.8944 -24.7792,22.9949 -13.0524,47.1088 7.8314,16.1037 15.4463,34.783 20.3632,49.9507 4.0119,12.376 6.2433,16.3244 10.7654,19.0493 3.0625,1.8454 5.5995,2.0386 32.8191,2.5 28.0575,0.4755 29.703,0.6086 33.6532,2.721 13.0525,6.9798 15.3008,17.4768 15.3294,71.5684 0.028,53.1087 -2.4197,64.8043 -14.8443,70.9254 -4.4304,2.1828 -5.9607,2.3076 -34.1383,2.7852 -20.4415,0.3465 -30.1488,0.8721 -31.6129,1.7118 -4.697,2.6939 -8.2462,8.2231 -10.9031,16.9859 -4.0345,13.3061 -12.8216,35.046 -20.9504,51.8329 -4.0031,8.2668 -7.5965,16.4793 -7.9855,18.25 -1.5094,6.8725 -0.2679,8.6838 20.4054,29.7706 21.5648,21.996 24.0528,25.5684 24.0367,34.5145 -0.02,11.3668 -6.2361,20.0211 -36.4902,50.8064 -33.9799,34.5764 -46.8533,44.4104 -58.1392,44.4126 -8.9029,0 -12.9602,-2.8333 -34.8608,-24.3592 -21.0254,-20.6656 -22.8079,-21.8867 -29.75,-20.3782 -1.7875,0.3884 -8.4753,3.3214 -14.8617,6.5178 -15.6096,7.8126 -32.4798,14.8201 -49.38835,20.5147 -7.7,2.5933 -15.46297,5.797 -17.25105,7.1193 -5.8677,4.3394 -6.01777,5.177 -6.50653,36.318 -0.29534,18.8176 -0.87194,29.8402 -1.69919,32.4829 -1.76382,5.6345 -8.40919,11.7122 -15.11087,13.8202 -2.99241,0.9412 -9.26385,2.1508 -13.93655,2.688 -9.93659,1.1422 -78.35243,1.0945 -88.29376,-0.062 z"
         id="path1530" />
      <path
         id="path19898"
         style="fill:#0077ff;fill-opacity:1;stroke:none;stroke-width:0.502851;paint-order:markers fill stroke"
         d="m 458.35395,187.69449 c -76.43129,10.734 -129.6893,81.39568 -118.95481,157.8269 1.8218,12.75264 5.39814,25.19215 10.62741,36.96515 L 1.9296678,677.11099 c -16.7170738,14.1491 8.1227652,62.56077 30.2602902,82.10291 22.137529,19.54216 67.762303,38.84552 82.640382,23.02467 l 308.2691,-327.80198 c 23.33823,10.01975 48.96582,13.48988 74.12827,10.03741 76.43039,-10.73497 117.32556,-76.06609 124.02993,-137.40122 3.33288,-30.49098 -3.35216,-54.56825 -10.91234,-45.13524 -5.23763,6.53511 -97.64021,93.03422 -97.64021,93.03422 -11.21054,11.98674 -16.17191,4.90769 -21.41391,-0.17366 l -60.04901,-56.08725 c -9.84955,-10.83814 -16.30415,-14.44694 -5.27629,-23.27489 l 103.25527,-98.6089 c 12.23253,-11.68208 -50.28472,-11.80272 -70.8672,-9.13257 z M 61.310463,669.16934 c 0.763867,-0.10523 1.551667,-0.13826 2.35384,-0.0919 l 47.882967,2.76353 c 6.41735,0.37023 11.29876,5.65748 10.94465,11.85471 l -2.78635,48.77371 c -0.35412,6.19721 -5.80704,10.88752 -12.22438,10.51729 l -47.882699,-2.7616 C 53.18115,739.85485 48.299733,734.56761 48.653847,728.37037 l 2.788285,-48.77398 c 0.309851,-5.42257 4.520944,-9.6924 9.868332,-10.427 z"
          />
    </g>
  </g>
</svg>
